<mxfile host="app.diagrams.net" modified="2023-10-09T16:46:06.146Z" agent="Mozilla/5.0 (Windows NT 10.0; Win64; x64; rv:109.0) Gecko/20100101 Firefox/118.0" etag="BmrJXIoVa3nGQDVnB1dI" version="22.0.4" type="github">
  <diagram name="Page-1" id="2YBvvXClWsGukQMizWep">
    <mxGraphModel dx="869" dy="1360" grid="1" gridSize="10" guides="1" tooltips="1" connect="1" arrows="1" fold="1" page="1" pageScale="1" pageWidth="850" pageHeight="1100" math="0" shadow="0">
      <root>
        <mxCell id="0" />
        <mxCell id="1" parent="0" />
        <mxCell id="hDyUVY_YeYGtJ8EU3rHW-9" style="edgeStyle=orthogonalEdgeStyle;rounded=0;orthogonalLoop=1;jettySize=auto;html=1;exitX=1;exitY=0.5;exitDx=0;exitDy=0;entryX=0;entryY=0.5;entryDx=0;entryDy=0;" edge="1" parent="1" source="hDyUVY_YeYGtJ8EU3rHW-4">
          <mxGeometry relative="1" as="geometry">
            <mxPoint x="120" y="475" as="targetPoint" />
          </mxGeometry>
        </mxCell>
        <mxCell id="hDyUVY_YeYGtJ8EU3rHW-4" value="" style="ellipse;html=1;shape=endState;fillColor=#000000;strokeColor=#ff0000;" vertex="1" parent="1">
          <mxGeometry x="30" y="460" width="30" height="30" as="geometry" />
        </mxCell>
        <mxCell id="hDyUVY_YeYGtJ8EU3rHW-16" style="edgeStyle=orthogonalEdgeStyle;rounded=0;orthogonalLoop=1;jettySize=auto;html=1;exitX=0.5;exitY=1;exitDx=0;exitDy=0;entryX=0;entryY=0.25;entryDx=0;entryDy=0;" edge="1" parent="1" source="hDyUVY_YeYGtJ8EU3rHW-8" target="hDyUVY_YeYGtJ8EU3rHW-12">
          <mxGeometry relative="1" as="geometry" />
        </mxCell>
        <mxCell id="hDyUVY_YeYGtJ8EU3rHW-17" style="edgeStyle=orthogonalEdgeStyle;rounded=0;orthogonalLoop=1;jettySize=auto;html=1;entryX=0;entryY=1;entryDx=0;entryDy=0;" edge="1" parent="1" source="hDyUVY_YeYGtJ8EU3rHW-8" target="hDyUVY_YeYGtJ8EU3rHW-13">
          <mxGeometry relative="1" as="geometry" />
        </mxCell>
        <mxCell id="hDyUVY_YeYGtJ8EU3rHW-8" value="" style="rhombus;" vertex="1" parent="1">
          <mxGeometry x="290" y="460" width="30" height="30" as="geometry" />
        </mxCell>
        <mxCell id="hDyUVY_YeYGtJ8EU3rHW-11" style="edgeStyle=orthogonalEdgeStyle;rounded=0;orthogonalLoop=1;jettySize=auto;html=1;entryX=0;entryY=0.5;entryDx=0;entryDy=0;" edge="1" parent="1" source="hDyUVY_YeYGtJ8EU3rHW-10" target="hDyUVY_YeYGtJ8EU3rHW-8">
          <mxGeometry relative="1" as="geometry" />
        </mxCell>
        <mxCell id="hDyUVY_YeYGtJ8EU3rHW-10" value="Zahlung aulösen" style="html=1;align=center;verticalAlign=middle;rounded=1;absoluteArcSize=1;arcSize=10;dashed=0;whiteSpace=wrap;" vertex="1" parent="1">
          <mxGeometry x="120" y="440" width="100" height="70" as="geometry" />
        </mxCell>
        <mxCell id="hDyUVY_YeYGtJ8EU3rHW-12" value="Zahlung failt" style="html=1;align=center;verticalAlign=middle;rounded=1;absoluteArcSize=1;arcSize=10;dashed=0;whiteSpace=wrap;" vertex="1" parent="1">
          <mxGeometry x="350" y="500" width="100" height="70" as="geometry" />
        </mxCell>
        <mxCell id="hDyUVY_YeYGtJ8EU3rHW-19" style="edgeStyle=orthogonalEdgeStyle;rounded=0;orthogonalLoop=1;jettySize=auto;html=1;exitX=1;exitY=1;exitDx=0;exitDy=0;" edge="1" parent="1" source="hDyUVY_YeYGtJ8EU3rHW-13">
          <mxGeometry relative="1" as="geometry">
            <mxPoint x="525" y="460" as="targetPoint" />
          </mxGeometry>
        </mxCell>
        <mxCell id="hDyUVY_YeYGtJ8EU3rHW-13" value="Zahlung geht durch" style="html=1;align=center;verticalAlign=middle;rounded=1;absoluteArcSize=1;arcSize=10;dashed=0;whiteSpace=wrap;" vertex="1" parent="1">
          <mxGeometry x="350" y="370" width="100" height="70" as="geometry" />
        </mxCell>
        <mxCell id="hDyUVY_YeYGtJ8EU3rHW-22" value="" style="shape=mxgraph.lean_mapping.electronic_info_flow_edge;html=1;rounded=0;entryX=0.25;entryY=1;entryDx=0;entryDy=0;exitX=0;exitY=0.75;exitDx=0;exitDy=0;" edge="1" parent="1" source="hDyUVY_YeYGtJ8EU3rHW-12" target="hDyUVY_YeYGtJ8EU3rHW-10">
          <mxGeometry width="160" relative="1" as="geometry">
            <mxPoint x="290" y="600" as="sourcePoint" />
            <mxPoint x="450" y="600" as="targetPoint" />
          </mxGeometry>
        </mxCell>
        <mxCell id="hDyUVY_YeYGtJ8EU3rHW-23" value="Sendung bestätigen" style="html=1;align=center;verticalAlign=middle;rounded=1;absoluteArcSize=1;arcSize=10;dashed=0;whiteSpace=wrap;" vertex="1" parent="1">
          <mxGeometry x="510" y="460" width="100" height="70" as="geometry" />
        </mxCell>
      </root>
    </mxGraphModel>
  </diagram>
</mxfile>
